<svg aria-roledescription="er" role="graphics-document document" viewBox="0 0 1096.5 598" style="max-width: 100%;" xmlns="http://www.w3.org/2000/svg" width="100%" id="graph-div" height="100%" xmlns:xlink="http://www.w3.org/1999/xlink"><style>@import url("https://cdnjs.cloudflare.com/ajax/libs/font-awesome/6.4.2/css/all.min.css");'</style><style>#graph-div{font-family:"trebuchet ms",verdana,arial,sans-serif;font-size:16px;fill:#000000;}#graph-div .error-icon{fill:#552222;}#graph-div .error-text{fill:#552222;stroke:#552222;}#graph-div .edge-thickness-normal{stroke-width:2px;}#graph-div .edge-thickness-thick{stroke-width:3.5px;}#graph-div .edge-pattern-solid{stroke-dasharray:0;}#graph-div .edge-pattern-dashed{stroke-dasharray:3;}#graph-div .edge-pattern-dotted{stroke-dasharray:2;}#graph-div .marker{fill:#000000;stroke:#000000;}#graph-div .marker.cross{stroke:#000000;}#graph-div svg{font-family:"trebuchet ms",verdana,arial,sans-serif;font-size:16px;}#graph-div .entityBox{fill:#cde498;stroke:#13540c;}#graph-div .attributeBoxOdd{fill:#ffffff;stroke:#13540c;}#graph-div .attributeBoxEven{fill:#f2f2f2;stroke:#13540c;}#graph-div .relationshipLabelBox{fill:hsl(78.1578947368, 58.4615384615%, 84.5098039216%);opacity:0.7;background-color:hsl(78.1578947368, 58.4615384615%, 84.5098039216%);}#graph-div .relationshipLabelBox rect{opacity:0.5;}#graph-div .relationshipLine{stroke:#000000;}#graph-div .entityTitleText{text-anchor:middle;font-size:18px;fill:#000000;}#graph-div #MD_PARENT_START{fill:#f5f5f5!important;stroke:#000000!important;stroke-width:1;}#graph-div #MD_PARENT_END{fill:#f5f5f5!important;stroke:#000000!important;stroke-width:1;}#graph-div :root{--mermaid-font-family:"trebuchet ms",verdana,arial,sans-serif;}</style><g></g><defs><marker orient="auto" markerHeight="240" markerWidth="190" refY="7" refX="0" id="MD_PARENT_START"><path d="M 18,7 L9,13 L1,7 L9,1 Z"></path></marker></defs><defs><marker orient="auto" markerHeight="28" markerWidth="20" refY="7" refX="19" id="MD_PARENT_END"><path d="M 18,7 L9,13 L1,7 L9,1 Z"></path></marker></defs><defs><marker orient="auto" markerHeight="18" markerWidth="18" refY="9" refX="0" id="ONLY_ONE_START"><path d="M9,0 L9,18 M15,0 L15,18" fill="none" stroke="gray"></path></marker></defs><defs><marker orient="auto" markerHeight="18" markerWidth="18" refY="9" refX="18" id="ONLY_ONE_END"><path d="M3,0 L3,18 M9,0 L9,18" fill="none" stroke="gray"></path></marker></defs><defs><marker orient="auto" markerHeight="18" markerWidth="30" refY="9" refX="0" id="ZERO_OR_ONE_START"><circle r="6" cy="9" cx="21" fill="white" stroke="gray"></circle><path d="M9,0 L9,18" fill="none" stroke="gray"></path></marker></defs><defs><marker orient="auto" markerHeight="18" markerWidth="30" refY="9" refX="30" id="ZERO_OR_ONE_END"><circle r="6" cy="9" cx="9" fill="white" stroke="gray"></circle><path d="M21,0 L21,18" fill="none" stroke="gray"></path></marker></defs><defs><marker orient="auto" markerHeight="36" markerWidth="45" refY="18" refX="18" id="ONE_OR_MORE_START"><path d="M0,18 Q 18,0 36,18 Q 18,36 0,18 M42,9 L42,27" fill="none" stroke="gray"></path></marker></defs><defs><marker orient="auto" markerHeight="36" markerWidth="45" refY="18" refX="27" id="ONE_OR_MORE_END"><path d="M3,9 L3,27 M9,18 Q27,0 45,18 Q27,36 9,18" fill="none" stroke="gray"></path></marker></defs><defs><marker orient="auto" markerHeight="36" markerWidth="57" refY="18" refX="18" id="ZERO_OR_MORE_START"><circle r="6" cy="18" cx="48" fill="white" stroke="gray"></circle><path d="M0,18 Q18,0 36,18 Q18,36 0,18" fill="none" stroke="gray"></path></marker></defs><defs><marker orient="auto" markerHeight="36" markerWidth="57" refY="18" refX="39" id="ZERO_OR_MORE_END"><circle r="6" cy="18" cx="9" fill="white" stroke="gray"></circle><path d="M21,18 Q39,0 57,18 Q39,36 21,18" fill="none" stroke="gray"></path></marker></defs><path marker-start="url(#ONLY_ONE_START)" marker-end="url(#ZERO_OR_MORE_END)" style="stroke: gray; fill: none;" d="M200.5,154L200.5,162.333C200.5,170.667,200.5,187.333,207.401,204C214.302,220.667,228.104,237.333,235.005,245.667L241.906,254" class="er relationshipLine"></path><path marker-start="url(#ONLY_ONE_START)" marker-end="url(#ZERO_OR_MORE_END)" style="stroke: gray; fill: none;" d="M412.5,154L412.5,162.333C412.5,170.667,412.5,187.333,405.599,204C398.698,220.667,384.896,237.333,377.995,245.667L371.094,254" class="er relationshipLine"></path><path marker-start="url(#ONLY_ONE_START)" marker-end="url(#ZERO_OR_MORE_END)" style="stroke: gray; fill: none;" d="M78.5,366L78.5,381.667C78.5,397.333,78.5,428.667,89.81,452.667C101.119,476.667,123.738,493.333,135.048,501.667L146.357,510" class="er relationshipLine"></path><path marker-start="url(#ONLY_ONE_START)" marker-end="url(#ZERO_OR_MORE_END)" style="stroke: gray; fill: none;" d="M306.5,410L306.5,418.333C306.5,426.667,306.5,443.333,295.19,460C283.881,476.667,261.262,493.333,249.952,501.667L238.643,510" class="er relationshipLine"></path><g transform="translate(144.5,20 )" id="entity-Patient-fd7c0e36-73bd-52fe-9d20-17fb0d0ffb71"><rect height="134" width="112" y="0" x="0" class="er entityBox"></rect><text transform="translate(56,12)" style="dominant-baseline: middle; text-anchor: middle; font-size: 12px;" y="0" x="0" id="text-entity-Patient-fd7c0e36-73bd-52fe-9d20-17fb0d0ffb71" class="er entityLabel">Patient</text><rect height="22" width="64" y="24" x="0" class="er attributeBoxOdd"></rect><text transform="translate(5,35)" style="dominant-baseline: middle; font-size: 10.2px;" y="0" x="0" id="text-entity-Patient-fd7c0e36-73bd-52fe-9d20-17fb0d0ffb71-attr-1-type" class="er entityLabel">PatientID</text><rect height="22" width="48" y="24" x="64" class="er attributeBoxOdd"></rect><text transform="translate(69,35)" style="dominant-baseline: middle; font-size: 10.2px;" y="0" x="0" id="text-entity-Patient-fd7c0e36-73bd-52fe-9d20-17fb0d0ffb71-attr-1-name" class="er entityLabel">int</text><rect height="22" width="64" y="46" x="0" class="er attributeBoxEven"></rect><text transform="translate(5,57)" style="dominant-baseline: middle; font-size: 10.2px;" y="0" x="0" id="text-entity-Patient-fd7c0e36-73bd-52fe-9d20-17fb0d0ffb71-attr-2-type" class="er entityLabel">FirstName</text><rect height="22" width="48" y="46" x="64" class="er attributeBoxEven"></rect><text transform="translate(69,57)" style="dominant-baseline: middle; font-size: 10.2px;" y="0" x="0" id="text-entity-Patient-fd7c0e36-73bd-52fe-9d20-17fb0d0ffb71-attr-2-name" class="er entityLabel">varchar</text><rect height="22" width="64" y="68" x="0" class="er attributeBoxOdd"></rect><text transform="translate(5,79)" style="dominant-baseline: middle; font-size: 10.2px;" y="0" x="0" id="text-entity-Patient-fd7c0e36-73bd-52fe-9d20-17fb0d0ffb71-attr-3-type" class="er entityLabel">LastName</text><rect height="22" width="48" y="68" x="64" class="er attributeBoxOdd"></rect><text transform="translate(69,79)" style="dominant-baseline: middle; font-size: 10.2px;" y="0" x="0" id="text-entity-Patient-fd7c0e36-73bd-52fe-9d20-17fb0d0ffb71-attr-3-name" class="er entityLabel">varchar</text><rect height="22" width="64" y="90" x="0" class="er attributeBoxEven"></rect><text transform="translate(5,101)" style="dominant-baseline: middle; font-size: 10.2px;" y="0" x="0" id="text-entity-Patient-fd7c0e36-73bd-52fe-9d20-17fb0d0ffb71-attr-4-type" class="er entityLabel">BirthDate</text><rect height="22" width="48" y="90" x="64" class="er attributeBoxEven"></rect><text transform="translate(69,101)" style="dominant-baseline: middle; font-size: 10.2px;" y="0" x="0" id="text-entity-Patient-fd7c0e36-73bd-52fe-9d20-17fb0d0ffb71-attr-4-name" class="er entityLabel">date</text><rect height="22" width="64" y="112" x="0" class="er attributeBoxOdd"></rect><text transform="translate(5,123)" style="dominant-baseline: middle; font-size: 10.2px;" y="0" x="0" id="text-entity-Patient-fd7c0e36-73bd-52fe-9d20-17fb0d0ffb71-attr-5-type" class="er entityLabel">ContactInfo</text><rect height="22" width="48" y="112" x="64" class="er attributeBoxOdd"></rect><text transform="translate(69,123)" style="dominant-baseline: middle; font-size: 10.2px;" y="0" x="0" id="text-entity-Patient-fd7c0e36-73bd-52fe-9d20-17fb0d0ffb71-attr-5-name" class="er entityLabel">varchar</text></g><g transform="translate(356.5,20 )" id="entity-Doctor-13695b2e-2b51-5bd3-9f02-34acc210c3b5"><rect height="134" width="112" y="0" x="0" class="er entityBox"></rect><text transform="translate(56,12)" style="dominant-baseline: middle; text-anchor: middle; font-size: 12px;" y="0" x="0" id="text-entity-Doctor-13695b2e-2b51-5bd3-9f02-34acc210c3b5" class="er entityLabel">Doctor</text><rect height="22" width="64" y="24" x="0" class="er attributeBoxOdd"></rect><text transform="translate(5,35)" style="dominant-baseline: middle; font-size: 10.2px;" y="0" x="0" id="text-entity-Doctor-13695b2e-2b51-5bd3-9f02-34acc210c3b5-attr-1-type" class="er entityLabel">DoctorID</text><rect height="22" width="48" y="24" x="64" class="er attributeBoxOdd"></rect><text transform="translate(69,35)" style="dominant-baseline: middle; font-size: 10.2px;" y="0" x="0" id="text-entity-Doctor-13695b2e-2b51-5bd3-9f02-34acc210c3b5-attr-1-name" class="er entityLabel">int</text><rect height="22" width="64" y="46" x="0" class="er attributeBoxEven"></rect><text transform="translate(5,57)" style="dominant-baseline: middle; font-size: 10.2px;" y="0" x="0" id="text-entity-Doctor-13695b2e-2b51-5bd3-9f02-34acc210c3b5-attr-2-type" class="er entityLabel">FirstName</text><rect height="22" width="48" y="46" x="64" class="er attributeBoxEven"></rect><text transform="translate(69,57)" style="dominant-baseline: middle; font-size: 10.2px;" y="0" x="0" id="text-entity-Doctor-13695b2e-2b51-5bd3-9f02-34acc210c3b5-attr-2-name" class="er entityLabel">varchar</text><rect height="22" width="64" y="68" x="0" class="er attributeBoxOdd"></rect><text transform="translate(5,79)" style="dominant-baseline: middle; font-size: 10.2px;" y="0" x="0" id="text-entity-Doctor-13695b2e-2b51-5bd3-9f02-34acc210c3b5-attr-3-type" class="er entityLabel">LastName</text><rect height="22" width="48" y="68" x="64" class="er attributeBoxOdd"></rect><text transform="translate(69,79)" style="dominant-baseline: middle; font-size: 10.2px;" y="0" x="0" id="text-entity-Doctor-13695b2e-2b51-5bd3-9f02-34acc210c3b5-attr-3-name" class="er entityLabel">varchar</text><rect height="22" width="64" y="90" x="0" class="er attributeBoxEven"></rect><text transform="translate(5,101)" style="dominant-baseline: middle; font-size: 10.2px;" y="0" x="0" id="text-entity-Doctor-13695b2e-2b51-5bd3-9f02-34acc210c3b5-attr-4-type" class="er entityLabel">Specialty</text><rect height="22" width="48" y="90" x="64" class="er attributeBoxEven"></rect><text transform="translate(69,101)" style="dominant-baseline: middle; font-size: 10.2px;" y="0" x="0" id="text-entity-Doctor-13695b2e-2b51-5bd3-9f02-34acc210c3b5-attr-4-name" class="er entityLabel">varchar</text><rect height="22" width="64" y="112" x="0" class="er attributeBoxOdd"></rect><text transform="translate(5,123)" style="dominant-baseline: middle; font-size: 10.2px;" y="0" x="0" id="text-entity-Doctor-13695b2e-2b51-5bd3-9f02-34acc210c3b5-attr-5-type" class="er entityLabel">ContactInfo</text><rect height="22" width="48" y="112" x="64" class="er attributeBoxOdd"></rect><text transform="translate(69,123)" style="dominant-baseline: middle; font-size: 10.2px;" y="0" x="0" id="text-entity-Doctor-13695b2e-2b51-5bd3-9f02-34acc210c3b5-attr-5-name" class="er entityLabel">varchar</text></g><g transform="translate(20,298 )" id="entity-Disease-f64cc6cf-a069-5457-a2d9-2f3f8bd9067d"><rect height="68" width="117" y="0" x="0" class="er entityBox"></rect><text transform="translate(58.5,12)" style="dominant-baseline: middle; text-anchor: middle; font-size: 12px;" y="0" x="0" id="text-entity-Disease-f64cc6cf-a069-5457-a2d9-2f3f8bd9067d" class="er entityLabel">Disease</text><rect height="22" width="69" y="24" x="0" class="er attributeBoxOdd"></rect><text transform="translate(5,35)" style="dominant-baseline: middle; font-size: 10.2px;" y="0" x="0" id="text-entity-Disease-f64cc6cf-a069-5457-a2d9-2f3f8bd9067d-attr-1-type" class="er entityLabel">DiseaseID</text><rect height="22" width="48" y="24" x="69" class="er attributeBoxOdd"></rect><text transform="translate(74,35)" style="dominant-baseline: middle; font-size: 10.2px;" y="0" x="0" id="text-entity-Disease-f64cc6cf-a069-5457-a2d9-2f3f8bd9067d-attr-1-name" class="er entityLabel">int</text><rect height="22" width="69" y="46" x="0" class="er attributeBoxEven"></rect><text transform="translate(5,57)" style="dominant-baseline: middle; font-size: 10.2px;" y="0" x="0" id="text-entity-Disease-f64cc6cf-a069-5457-a2d9-2f3f8bd9067d-attr-2-type" class="er entityLabel">DiseaseName</text><rect height="22" width="48" y="46" x="69" class="er attributeBoxEven"></rect><text transform="translate(74,57)" style="dominant-baseline: middle; font-size: 10.2px;" y="0" x="0" id="text-entity-Disease-f64cc6cf-a069-5457-a2d9-2f3f8bd9067d-attr-2-name" class="er entityLabel">varchar</text></g><g transform="translate(237,254 )" id="entity-Appointment-3da851f3-d560-5982-a39e-9e2a8ae336e4"><rect height="156" width="139" y="0" x="0" class="er entityBox"></rect><text transform="translate(69.5,12)" style="dominant-baseline: middle; text-anchor: middle; font-size: 12px;" y="0" x="0" id="text-entity-Appointment-3da851f3-d560-5982-a39e-9e2a8ae336e4" class="er entityLabel">Appointment</text><rect height="22" width="79" y="24" x="0" class="er attributeBoxOdd"></rect><text transform="translate(5,35)" style="dominant-baseline: middle; font-size: 10.2px;" y="0" x="0" id="text-entity-Appointment-3da851f3-d560-5982-a39e-9e2a8ae336e4-attr-1-type" class="er entityLabel">AppointmentID</text><rect height="22" width="60" y="24" x="79" class="er attributeBoxOdd"></rect><text transform="translate(84,35)" style="dominant-baseline: middle; font-size: 10.2px;" y="0" x="0" id="text-entity-Appointment-3da851f3-d560-5982-a39e-9e2a8ae336e4-attr-1-name" class="er entityLabel">int</text><rect height="22" width="79" y="46" x="0" class="er attributeBoxEven"></rect><text transform="translate(5,57)" style="dominant-baseline: middle; font-size: 10.2px;" y="0" x="0" id="text-entity-Appointment-3da851f3-d560-5982-a39e-9e2a8ae336e4-attr-2-type" class="er entityLabel">VisitDate</text><rect height="22" width="60" y="46" x="79" class="er attributeBoxEven"></rect><text transform="translate(84,57)" style="dominant-baseline: middle; font-size: 10.2px;" y="0" x="0" id="text-entity-Appointment-3da851f3-d560-5982-a39e-9e2a8ae336e4-attr-2-name" class="er entityLabel">timestamp</text><rect height="22" width="79" y="68" x="0" class="er attributeBoxOdd"></rect><text transform="translate(5,79)" style="dominant-baseline: middle; font-size: 10.2px;" y="0" x="0" id="text-entity-Appointment-3da851f3-d560-5982-a39e-9e2a8ae336e4-attr-3-type" class="er entityLabel">LensHardness</text><rect height="22" width="60" y="68" x="79" class="er attributeBoxOdd"></rect><text transform="translate(84,79)" style="dominant-baseline: middle; font-size: 10.2px;" y="0" x="0" id="text-entity-Appointment-3da851f3-d560-5982-a39e-9e2a8ae336e4-attr-3-name" class="er entityLabel">float</text><rect height="22" width="79" y="90" x="0" class="er attributeBoxEven"></rect><text transform="translate(5,101)" style="dominant-baseline: middle; font-size: 10.2px;" y="0" x="0" id="text-entity-Appointment-3da851f3-d560-5982-a39e-9e2a8ae336e4-attr-4-type" class="er entityLabel">TearRate</text><rect height="22" width="60" y="90" x="79" class="er attributeBoxEven"></rect><text transform="translate(84,101)" style="dominant-baseline: middle; font-size: 10.2px;" y="0" x="0" id="text-entity-Appointment-3da851f3-d560-5982-a39e-9e2a8ae336e4-attr-4-name" class="er entityLabel">float</text><rect height="22" width="79" y="112" x="0" class="er attributeBoxOdd"></rect><text transform="translate(5,123)" style="dominant-baseline: middle; font-size: 10.2px;" y="0" x="0" id="text-entity-Appointment-3da851f3-d560-5982-a39e-9e2a8ae336e4-attr-5-type" class="er entityLabel">PatientID</text><rect height="22" width="60" y="112" x="79" class="er attributeBoxOdd"></rect><text transform="translate(84,123)" style="dominant-baseline: middle; font-size: 10.2px;" y="0" x="0" id="text-entity-Appointment-3da851f3-d560-5982-a39e-9e2a8ae336e4-attr-5-name" class="er entityLabel">int</text><rect height="22" width="79" y="134" x="0" class="er attributeBoxEven"></rect><text transform="translate(5,145)" style="dominant-baseline: middle; font-size: 10.2px;" y="0" x="0" id="text-entity-Appointment-3da851f3-d560-5982-a39e-9e2a8ae336e4-attr-6-type" class="er entityLabel">DoctorID</text><rect height="22" width="60" y="134" x="79" class="er attributeBoxEven"></rect><text transform="translate(84,145)" style="dominant-baseline: middle; font-size: 10.2px;" y="0" x="0" id="text-entity-Appointment-3da851f3-d560-5982-a39e-9e2a8ae336e4-attr-6-name" class="er entityLabel">int</text></g><g transform="translate(117.5,510 )" id="entity-AppointmentDisease-7bbdfec8-c551-5dfe-9142-d704326b567a"><rect height="68" width="150" y="0" x="0" class="er entityBox"></rect><text transform="translate(75,12)" style="dominant-baseline: middle; text-anchor: middle; font-size: 12px;" y="0" x="0" id="text-entity-AppointmentDisease-7bbdfec8-c551-5dfe-9142-d704326b567a" class="er entityLabel">Appointment_Disease</text><rect height="22" width="102" y="24" x="0" class="er attributeBoxOdd"></rect><text transform="translate(5,35)" style="dominant-baseline: middle; font-size: 10.2px;" y="0" x="0" id="text-entity-AppointmentDisease-7bbdfec8-c551-5dfe-9142-d704326b567a-attr-1-type" class="er entityLabel">AppointmentID</text><rect height="22" width="48" y="24" x="102" class="er attributeBoxOdd"></rect><text transform="translate(107,35)" style="dominant-baseline: middle; font-size: 10.2px;" y="0" x="0" id="text-entity-AppointmentDisease-7bbdfec8-c551-5dfe-9142-d704326b567a-attr-1-name" class="er entityLabel">int</text><rect height="22" width="102" y="46" x="0" class="er attributeBoxEven"></rect><text transform="translate(5,57)" style="dominant-baseline: middle; font-size: 10.2px;" y="0" x="0" id="text-entity-AppointmentDisease-7bbdfec8-c551-5dfe-9142-d704326b567a-attr-2-type" class="er entityLabel">DiseaseID</text><rect height="22" width="48" y="46" x="102" class="er attributeBoxEven"></rect><text transform="translate(107,57)" style="dominant-baseline: middle; font-size: 10.2px;" y="0" x="0" id="text-entity-AppointmentDisease-7bbdfec8-c551-5dfe-9142-d704326b567a-attr-2-name" class="er entityLabel">int</text></g><g transform="translate(568.5,53 )" id="entity-OcularAge-b5ff8199-5aa9-517f-90ac-948031ca62d7"><rect height="68" width="100" y="0" x="0" class="er entityBox"></rect><text transform="translate(50,12)" style="dominant-baseline: middle; text-anchor: middle; font-size: 12px;" y="0" x="0" id="text-entity-OcularAge-b5ff8199-5aa9-517f-90ac-948031ca62d7" class="er entityLabel">OcularAge</text><rect height="22" width="64.5" y="24" x="0" class="er attributeBoxOdd"></rect><text transform="translate(5,35)" style="dominant-baseline: middle; font-size: 10.2px;" y="0" x="0" id="text-entity-OcularAge-b5ff8199-5aa9-517f-90ac-948031ca62d7-attr-1-type" class="er entityLabel">MaxLimit</text><rect height="22" width="35.5" y="24" x="64.5" class="er attributeBoxOdd"></rect><text transform="translate(69.5,35)" style="dominant-baseline: middle; font-size: 10.2px;" y="0" x="0" id="text-entity-OcularAge-b5ff8199-5aa9-517f-90ac-948031ca62d7-attr-1-name" class="er entityLabel">int</text><rect height="22" width="64.5" y="46" x="0" class="er attributeBoxEven"></rect><text transform="translate(5,57)" style="dominant-baseline: middle; font-size: 10.2px;" y="0" x="0" id="text-entity-OcularAge-b5ff8199-5aa9-517f-90ac-948031ca62d7-attr-2-type" class="er entityLabel">MinLimit</text><rect height="22" width="35.5" y="46" x="64.5" class="er attributeBoxEven"></rect><text transform="translate(69.5,57)" style="dominant-baseline: middle; font-size: 10.2px;" y="0" x="0" id="text-entity-OcularAge-b5ff8199-5aa9-517f-90ac-948031ca62d7-attr-2-name" class="er entityLabel">int</text></g><g transform="translate(768.5,53 )" id="entity-LensHardness-7db1aa31-41e4-5aee-974a-bcf05d42152d"><rect height="68" width="108" y="0" x="0" class="er entityBox"></rect><text transform="translate(54,12)" style="dominant-baseline: middle; text-anchor: middle; font-size: 12px;" y="0" x="0" id="text-entity-LensHardness-7db1aa31-41e4-5aee-974a-bcf05d42152d" class="er entityLabel">LensHardness</text><rect height="22" width="64.5" y="24" x="0" class="er attributeBoxOdd"></rect><text transform="translate(5,35)" style="dominant-baseline: middle; font-size: 10.2px;" y="0" x="0" id="text-entity-LensHardness-7db1aa31-41e4-5aee-974a-bcf05d42152d-attr-1-type" class="er entityLabel">MaxLimit</text><rect height="22" width="43.5" y="24" x="64.5" class="er attributeBoxOdd"></rect><text transform="translate(69.5,35)" style="dominant-baseline: middle; font-size: 10.2px;" y="0" x="0" id="text-entity-LensHardness-7db1aa31-41e4-5aee-974a-bcf05d42152d-attr-1-name" class="er entityLabel">float</text><rect height="22" width="64.5" y="46" x="0" class="er attributeBoxEven"></rect><text transform="translate(5,57)" style="dominant-baseline: middle; font-size: 10.2px;" y="0" x="0" id="text-entity-LensHardness-7db1aa31-41e4-5aee-974a-bcf05d42152d-attr-2-type" class="er entityLabel">MinLimit</text><rect height="22" width="43.5" y="46" x="64.5" class="er attributeBoxEven"></rect><text transform="translate(69.5,57)" style="dominant-baseline: middle; font-size: 10.2px;" y="0" x="0" id="text-entity-LensHardness-7db1aa31-41e4-5aee-974a-bcf05d42152d-attr-2-name" class="er entityLabel">float</text></g><g transform="translate(976.5,64 )" id="entity-TearRate-9a0d81ed-2a16-5020-bca1-07c7775a0714"><rect height="46" width="100" y="0" x="0" class="er entityBox"></rect><text transform="translate(50,12)" style="dominant-baseline: middle; text-anchor: middle; font-size: 12px;" y="0" x="0" id="text-entity-TearRate-9a0d81ed-2a16-5020-bca1-07c7775a0714" class="er entityLabel">TearRate</text><rect height="22" width="60" y="24" x="0" class="er attributeBoxOdd"></rect><text transform="translate(5,35)" style="dominant-baseline: middle; font-size: 10.2px;" y="0" x="0" id="text-entity-TearRate-9a0d81ed-2a16-5020-bca1-07c7775a0714-attr-1-type" class="er entityLabel">MidLimit</text><rect height="22" width="40" y="24" x="60" class="er attributeBoxOdd"></rect><text transform="translate(65,35)" style="dominant-baseline: middle; font-size: 10.2px;" y="0" x="0" id="text-entity-TearRate-9a0d81ed-2a16-5020-bca1-07c7775a0714-attr-1-name" class="er entityLabel">float</text></g><rect height="14" width="21" y="201.61415100097656" x="198.98025512695312" class="er relationshipLabelBox"></rect><text style="text-anchor: middle; dominant-baseline: middle; font-size: 12px;" y="208.61415100097656" x="209.48025512695312" id="rel5" class="er relationshipLabel">has</text><rect height="14" width="45" y="201.61416625976562" x="381.0197448730469" class="er relationshipLabelBox"></rect><text style="text-anchor: middle; dominant-baseline: middle; font-size: 12px;" y="208.61416625976562" x="403.5197448730469" id="rel6" class="er relationshipLabel">attends</text><rect height="14" width="72" y="442.6119384765625" x="52.44657897949219" class="er relationshipLabelBox"></rect><text style="text-anchor: middle; dominant-baseline: middle; font-size: 12px;" y="449.6119384765625" x="88.44657897949219" id="rel7" class="er relationshipLabel">diagnosed in</text><rect height="14" width="54" y="462.2324523925781" x="260.8638000488281" class="er relationshipLabelBox"></rect><text style="text-anchor: middle; dominant-baseline: middle; font-size: 12px;" y="469.2324523925781" x="287.8638000488281" id="rel8" class="er relationshipLabel">results in</text></svg>