<svg aria-roledescription="er" role="graphics-document document" viewBox="-93.98450469970703 0 859.10205078125 705.046875" height="705.046875" xmlns="http://www.w3.org/2000/svg" width="859.10205078125" id="tmpMermaidElement3035"><style>#tmpMermaidElement {background: white;}#tmpMermaidElement3035{font-family:"trebuchet ms",verdana,arial,sans-serif;font-size:16px;fill:#000000;}#tmpMermaidElement3035 .error-icon{fill:#552222;}#tmpMermaidElement3035 .error-text{fill:#552222;stroke:#552222;}#tmpMermaidElement3035 .edge-thickness-normal{stroke-width:2px;}#tmpMermaidElement3035 .edge-thickness-thick{stroke-width:3.5px;}#tmpMermaidElement3035 .edge-pattern-solid{stroke-dasharray:0;}#tmpMermaidElement3035 .edge-pattern-dashed{stroke-dasharray:3;}#tmpMermaidElement3035 .edge-pattern-dotted{stroke-dasharray:2;}#tmpMermaidElement3035 .marker{fill:#000000;stroke:#000000;}#tmpMermaidElement3035 .marker.cross{stroke:#000000;}#tmpMermaidElement3035 svg{font-family:"trebuchet ms",verdana,arial,sans-serif;font-size:16px;}#tmpMermaidElement3035 .entityBox{fill:#cde498;stroke:#13540c;}#tmpMermaidElement3035 .attributeBoxOdd{fill:#ffffff;stroke:#13540c;}#tmpMermaidElement3035 .attributeBoxEven{fill:#f2f2f2;stroke:#13540c;}#tmpMermaidElement3035 .relationshipLabelBox{fill:hsl(78.1578947368, 58.4615384615%, 84.5098039216%);opacity:0.7;background-color:hsl(78.1578947368, 58.4615384615%, 84.5098039216%);}#tmpMermaidElement3035 .relationshipLabelBox rect{opacity:0.5;}#tmpMermaidElement3035 .relationshipLine{stroke:#000000;}#tmpMermaidElement3035 .entityTitleText{text-anchor:middle;font-size:18px;fill:#000000;}#tmpMermaidElement3035 #MD_PARENT_START{fill:#f5f5f5!important;stroke:#000000!important;stroke-width:1;}#tmpMermaidElement3035 #MD_PARENT_END{fill:#f5f5f5!important;stroke:#000000!important;stroke-width:1;}#tmpMermaidElement3035 :root{--mermaid-font-family:"trebuchet ms",verdana,arial,sans-serif;}</style><g></g><defs><marker orient="auto" markerHeight="240" markerWidth="190" refY="7" refX="0" id="MD_PARENT_START"><path d="M 18,7 L9,13 L1,7 L9,1 Z"></path></marker></defs><defs><marker orient="auto" markerHeight="28" markerWidth="20" refY="7" refX="19" id="MD_PARENT_END"><path d="M 18,7 L9,13 L1,7 L9,1 Z"></path></marker></defs><defs><marker orient="auto" markerHeight="18" markerWidth="18" refY="9" refX="0" id="ONLY_ONE_START"><path d="M9,0 L9,18 M15,0 L15,18" fill="none" stroke="gray"></path></marker></defs><defs><marker orient="auto" markerHeight="18" markerWidth="18" refY="9" refX="18" id="ONLY_ONE_END"><path d="M3,0 L3,18 M9,0 L9,18" fill="none" stroke="gray"></path></marker></defs><defs><marker orient="auto" markerHeight="18" markerWidth="30" refY="9" refX="0" id="ZERO_OR_ONE_START"><circle r="6" cy="9" cx="21" fill="white" stroke="gray"></circle><path d="M9,0 L9,18" fill="none" stroke="gray"></path></marker></defs><defs><marker orient="auto" markerHeight="18" markerWidth="30" refY="9" refX="30" id="ZERO_OR_ONE_END"><circle r="6" cy="9" cx="9" fill="white" stroke="gray"></circle><path d="M21,0 L21,18" fill="none" stroke="gray"></path></marker></defs><defs><marker orient="auto" markerHeight="36" markerWidth="45" refY="18" refX="18" id="ONE_OR_MORE_START"><path d="M0,18 Q 18,0 36,18 Q 18,36 0,18 M42,9 L42,27" fill="none" stroke="gray"></path></marker></defs><defs><marker orient="auto" markerHeight="36" markerWidth="45" refY="18" refX="27" id="ONE_OR_MORE_END"><path d="M3,9 L3,27 M9,18 Q27,0 45,18 Q27,36 9,18" fill="none" stroke="gray"></path></marker></defs><defs><marker orient="auto" markerHeight="36" markerWidth="57" refY="18" refX="18" id="ZERO_OR_MORE_START"><circle r="6" cy="18" cx="48" fill="white" stroke="gray"></circle><path d="M0,18 Q18,0 36,18 Q18,36 0,18" fill="none" stroke="gray"></path></marker></defs><defs><marker orient="auto" markerHeight="36" markerWidth="57" refY="18" refX="39" id="ZERO_OR_MORE_END"><circle r="6" cy="18" cx="9" fill="white" stroke="gray"></circle><path d="M21,18 Q39,0 57,18 Q39,36 21,18" fill="none" stroke="gray"></path></marker></defs><path style="stroke: gray; fill: none;" marker-start="url(#ONLY_ONE_START)" marker-end="url(#ZERO_OR_MORE_END)" d="M142.049,167.016L145.826,175.349C149.602,183.682,157.156,200.349,166.369,219.016C175.581,237.682,186.453,258.349,191.889,268.682L197.324,279.016" class="er relationshipLine"></path><path style="stroke: gray; fill: none;" marker-start="url(#ONLY_ONE_START)" marker-end="url(#ZERO_OR_MORE_END)" d="M386.909,167.016L386.909,175.349C386.909,183.682,386.909,200.349,371.329,222.672C355.748,244.995,324.587,272.975,309.007,286.964L293.426,300.954" class="er relationshipLine"></path><path style="stroke: gray; fill: none;" marker-start="url(#ONLY_ONE_START)" marker-end="url(#ZERO_OR_MORE_END)" d="M164.71,111.789L218.409,129.327C272.109,146.864,379.509,181.94,454.669,214.507C529.828,247.074,572.747,277.133,594.206,292.163L615.666,307.192" class="er relationshipLine"></path><path style="stroke: gray; fill: none;" marker-start="url(#ONLY_ONE_START)" marker-end="url(#ZERO_OR_MORE_END)" d="M442.885,114.965L487.255,131.973C531.626,148.982,620.367,182.999,662.972,208.34C705.576,233.682,702.044,250.349,700.278,258.682L698.512,267.016" class="er relationshipLine"></path><path style="stroke: gray; fill: none;" marker-start="url(#ONLY_ONE_START)" marker-end="url(#ZERO_OR_MORE_END)" d="M454.546,390.031L454.546,406.365C454.546,422.698,454.546,455.365,471.677,486.031C488.808,516.698,523.07,545.365,540.201,559.698L557.332,574.031" class="er relationshipLine"></path><path style="stroke: gray; fill: none;" marker-start="url(#ONLY_ONE_START)" marker-end="url(#ZERO_OR_MORE_END)" d="M680.392,438.031L680.392,446.365C680.392,454.698,680.392,471.365,671.313,494.031C662.234,516.698,644.077,545.365,634.998,559.698L625.919,574.031" class="er relationshipLine"></path><path style="stroke: gray; fill: none;" marker-start="url(#ONLY_ONE_START)" marker-end="url(#ZERO_OR_MORE_END)" d="M52.758,133.53L33.297,147.444C13.836,161.358,-25.085,189.187,-44.546,225.686C-64.007,262.185,-64.007,307.354,-64.007,352.523C-64.007,397.693,-64.007,442.862,-50.006,476.533C-36.005,510.205,-8.002,532.378,5.999,543.465L20,554.551" class="er relationshipLine"></path><path style="stroke: gray; fill: none;" marker-start="url(#ONLY_ONE_START)" marker-end="url(#ZERO_OR_MORE_END)" d="M330.933,113.209L281.776,130.51C232.62,147.811,134.306,182.413,85.15,222.299C35.993,262.185,35.993,307.354,35.993,352.523C35.993,397.693,35.993,442.862,39.77,473.78C43.547,504.698,51.1,521.365,54.877,529.698L58.654,538.031" class="er relationshipLine"></path><path style="stroke: gray; fill: none;" marker-start="url(#ONLY_ONE_START)" marker-end="url(#ZERO_OR_MORE_END)" d="M235.993,426.031L235.993,436.365C235.993,446.698,235.993,467.365,223.984,487.996C211.974,508.628,187.956,529.225,175.947,539.524L163.938,549.822" class="er relationshipLine"></path><g transform="translate(52.75791931152344,20 )" id="entity-PATIENT-1d5528e4-b873-5fa2-b03f-2264906c1060"><rect height="147.015625" width="111.95162963867188" y="0" x="0" class="er entityBox"></rect><text style="dominant-baseline: middle; text-anchor: middle; font-size: 12px;" transform="translate(55.97581481933594,13.5078125)" y="0" x="0" id="text-entity-PATIENT-1d5528e4-b873-5fa2-b03f-2264906c1060" class="er entityLabel">PATIENT</text><rect height="24" width="65.25" y="27.015625" x="0" class="er attributeBoxOdd"></rect><text style="dominant-baseline: middle; font-size: 10.2px;" transform="translate(5,39.015625)" y="0" x="0" id="text-entity-PATIENT-1d5528e4-b873-5fa2-b03f-2264906c1060-attr-1-type" class="er entityLabel">PatientID</text><rect height="24" width="46.701629638671875" y="27.015625" x="65.25" class="er attributeBoxOdd"></rect><text style="dominant-baseline: middle; font-size: 10.2px;" transform="translate(70.25,39.015625)" y="0" x="0" id="text-entity-PATIENT-1d5528e4-b873-5fa2-b03f-2264906c1060-attr-1-name" class="er entityLabel">int</text><rect height="24" width="65.25" y="51.015625" x="0" class="er attributeBoxEven"></rect><text style="dominant-baseline: middle; font-size: 10.2px;" transform="translate(5,63.015625)" y="0" x="0" id="text-entity-PATIENT-1d5528e4-b873-5fa2-b03f-2264906c1060-attr-2-type" class="er entityLabel">FirstName</text><rect height="24" width="46.701629638671875" y="51.015625" x="65.25" class="er attributeBoxEven"></rect><text style="dominant-baseline: middle; font-size: 10.2px;" transform="translate(70.25,63.015625)" y="0" x="0" id="text-entity-PATIENT-1d5528e4-b873-5fa2-b03f-2264906c1060-attr-2-name" class="er entityLabel">varchar</text><rect height="24" width="65.25" y="75.015625" x="0" class="er attributeBoxOdd"></rect><text style="dominant-baseline: middle; font-size: 10.2px;" transform="translate(5,87.015625)" y="0" x="0" id="text-entity-PATIENT-1d5528e4-b873-5fa2-b03f-2264906c1060-attr-3-type" class="er entityLabel">LastName</text><rect height="24" width="46.701629638671875" y="75.015625" x="65.25" class="er attributeBoxOdd"></rect><text style="dominant-baseline: middle; font-size: 10.2px;" transform="translate(70.25,87.015625)" y="0" x="0" id="text-entity-PATIENT-1d5528e4-b873-5fa2-b03f-2264906c1060-attr-3-name" class="er entityLabel">varchar</text><rect height="24" width="65.25" y="99.015625" x="0" class="er attributeBoxEven"></rect><text style="dominant-baseline: middle; font-size: 10.2px;" transform="translate(5,111.015625)" y="0" x="0" id="text-entity-PATIENT-1d5528e4-b873-5fa2-b03f-2264906c1060-attr-4-type" class="er entityLabel">BirthDate</text><rect height="24" width="46.701629638671875" y="99.015625" x="65.25" class="er attributeBoxEven"></rect><text style="dominant-baseline: middle; font-size: 10.2px;" transform="translate(70.25,111.015625)" y="0" x="0" id="text-entity-PATIENT-1d5528e4-b873-5fa2-b03f-2264906c1060-attr-4-name" class="er entityLabel">date</text><rect height="24" width="65.25" y="123.015625" x="0" class="er attributeBoxOdd"></rect><text style="dominant-baseline: middle; font-size: 10.2px;" transform="translate(5,135.015625)" y="0" x="0" id="text-entity-PATIENT-1d5528e4-b873-5fa2-b03f-2264906c1060-attr-5-type" class="er entityLabel">ContactInfo</text><rect height="24" width="46.701629638671875" y="123.015625" x="65.25" class="er attributeBoxOdd"></rect><text style="dominant-baseline: middle; font-size: 10.2px;" transform="translate(70.25,135.015625)" y="0" x="0" id="text-entity-PATIENT-1d5528e4-b873-5fa2-b03f-2264906c1060-attr-5-name" class="er entityLabel">varchar</text></g><g transform="translate(330.9331588745117,20 )" id="entity-DOCTOR-67e13119-6551-5b39-9dda-e9cfb2f2a86f"><rect height="147.015625" width="111.95162963867188" y="0" x="0" class="er entityBox"></rect><text style="dominant-baseline: middle; text-anchor: middle; font-size: 12px;" transform="translate(55.97581481933594,13.5078125)" y="0" x="0" id="text-entity-DOCTOR-67e13119-6551-5b39-9dda-e9cfb2f2a86f" class="er entityLabel">DOCTOR</text><rect height="24" width="65.25" y="27.015625" x="0" class="er attributeBoxOdd"></rect><text style="dominant-baseline: middle; font-size: 10.2px;" transform="translate(5,39.015625)" y="0" x="0" id="text-entity-DOCTOR-67e13119-6551-5b39-9dda-e9cfb2f2a86f-attr-1-type" class="er entityLabel">DoctorID</text><rect height="24" width="46.701629638671875" y="27.015625" x="65.25" class="er attributeBoxOdd"></rect><text style="dominant-baseline: middle; font-size: 10.2px;" transform="translate(70.25,39.015625)" y="0" x="0" id="text-entity-DOCTOR-67e13119-6551-5b39-9dda-e9cfb2f2a86f-attr-1-name" class="er entityLabel">int</text><rect height="24" width="65.25" y="51.015625" x="0" class="er attributeBoxEven"></rect><text style="dominant-baseline: middle; font-size: 10.2px;" transform="translate(5,63.015625)" y="0" x="0" id="text-entity-DOCTOR-67e13119-6551-5b39-9dda-e9cfb2f2a86f-attr-2-type" class="er entityLabel">FirstName</text><rect height="24" width="46.701629638671875" y="51.015625" x="65.25" class="er attributeBoxEven"></rect><text style="dominant-baseline: middle; font-size: 10.2px;" transform="translate(70.25,63.015625)" y="0" x="0" id="text-entity-DOCTOR-67e13119-6551-5b39-9dda-e9cfb2f2a86f-attr-2-name" class="er entityLabel">varchar</text><rect height="24" width="65.25" y="75.015625" x="0" class="er attributeBoxOdd"></rect><text style="dominant-baseline: middle; font-size: 10.2px;" transform="translate(5,87.015625)" y="0" x="0" id="text-entity-DOCTOR-67e13119-6551-5b39-9dda-e9cfb2f2a86f-attr-3-type" class="er entityLabel">LastName</text><rect height="24" width="46.701629638671875" y="75.015625" x="65.25" class="er attributeBoxOdd"></rect><text style="dominant-baseline: middle; font-size: 10.2px;" transform="translate(70.25,87.015625)" y="0" x="0" id="text-entity-DOCTOR-67e13119-6551-5b39-9dda-e9cfb2f2a86f-attr-3-name" class="er entityLabel">varchar</text><rect height="24" width="65.25" y="99.015625" x="0" class="er attributeBoxEven"></rect><text style="dominant-baseline: middle; font-size: 10.2px;" transform="translate(5,111.015625)" y="0" x="0" id="text-entity-DOCTOR-67e13119-6551-5b39-9dda-e9cfb2f2a86f-attr-4-type" class="er entityLabel">Specialty</text><rect height="24" width="46.701629638671875" y="99.015625" x="65.25" class="er attributeBoxEven"></rect><text style="dominant-baseline: middle; font-size: 10.2px;" transform="translate(70.25,111.015625)" y="0" x="0" id="text-entity-DOCTOR-67e13119-6551-5b39-9dda-e9cfb2f2a86f-attr-4-name" class="er entityLabel">varchar</text><rect height="24" width="65.25" y="123.015625" x="0" class="er attributeBoxOdd"></rect><text style="dominant-baseline: middle; font-size: 10.2px;" transform="translate(5,135.015625)" y="0" x="0" id="text-entity-DOCTOR-67e13119-6551-5b39-9dda-e9cfb2f2a86f-attr-5-type" class="er entityLabel">ContactInfo</text><rect height="24" width="46.701629638671875" y="123.015625" x="65.25" class="er attributeBoxOdd"></rect><text style="dominant-baseline: middle; font-size: 10.2px;" transform="translate(70.25,135.015625)" y="0" x="0" id="text-entity-DOCTOR-67e13119-6551-5b39-9dda-e9cfb2f2a86f-attr-5-name" class="er entityLabel">varchar</text></g><g transform="translate(393.42616271972656,315.015625 )" id="entity-DISEASE-20e025b8-60c8-5bea-a36b-3926a6dc1901"><rect height="75.015625" width="122.23980712890625" y="0" x="0" class="er entityBox"></rect><text style="dominant-baseline: middle; text-anchor: middle; font-size: 12px;" transform="translate(61.119903564453125,13.5078125)" y="0" x="0" id="text-entity-DISEASE-20e025b8-60c8-5bea-a36b-3926a6dc1901" class="er entityLabel">DISEASE</text><rect height="24" width="75.53817749023438" y="27.015625" x="0" class="er attributeBoxOdd"></rect><text style="dominant-baseline: middle; font-size: 10.2px;" transform="translate(5,39.015625)" y="0" x="0" id="text-entity-DISEASE-20e025b8-60c8-5bea-a36b-3926a6dc1901-attr-1-type" class="er entityLabel">DiseaseID</text><rect height="24" width="46.701629638671875" y="27.015625" x="75.53817749023438" class="er attributeBoxOdd"></rect><text style="dominant-baseline: middle; font-size: 10.2px;" transform="translate(80.53817749023438,39.015625)" y="0" x="0" id="text-entity-DISEASE-20e025b8-60c8-5bea-a36b-3926a6dc1901-attr-1-name" class="er entityLabel">int</text><rect height="24" width="75.53817749023438" y="51.015625" x="0" class="er attributeBoxEven"></rect><text style="dominant-baseline: middle; font-size: 10.2px;" transform="translate(5,63.015625)" y="0" x="0" id="text-entity-DISEASE-20e025b8-60c8-5bea-a36b-3926a6dc1901-attr-2-type" class="er entityLabel">DiseaseName</text><rect height="24" width="46.701629638671875" y="51.015625" x="75.53817749023438" class="er attributeBoxEven"></rect><text style="dominant-baseline: middle; font-size: 10.2px;" transform="translate(80.53817749023438,63.015625)" y="0" x="0" id="text-entity-DISEASE-20e025b8-60c8-5bea-a36b-3926a6dc1901-attr-2-name" class="er entityLabel">varchar</text></g><g transform="translate(178.55970764160156,279.015625 )" id="entity-PRESCRIPTION-ee3d4443-df53-54da-85c4-f6790e2bddd3"><rect height="147.015625" width="114.866455078125" y="0" x="0" class="er entityBox"></rect><text style="dominant-baseline: middle; text-anchor: middle; font-size: 12px;" transform="translate(57.4332275390625,13.5078125)" y="0" x="0" id="text-entity-PRESCRIPTION-ee3d4443-df53-54da-85c4-f6790e2bddd3" class="er entityLabel">PRESCRIPTION</text><rect height="24" width="83.078125" y="27.015625" x="0" class="er attributeBoxOdd"></rect><text style="dominant-baseline: middle; font-size: 10.2px;" transform="translate(5,39.015625)" y="0" x="0" id="text-entity-PRESCRIPTION-ee3d4443-df53-54da-85c4-f6790e2bddd3-attr-1-type" class="er entityLabel">PrescriptionID</text><rect height="24" width="31.788330078125" y="27.015625" x="83.078125" class="er attributeBoxOdd"></rect><text style="dominant-baseline: middle; font-size: 10.2px;" transform="translate(88.078125,39.015625)" y="0" x="0" id="text-entity-PRESCRIPTION-ee3d4443-df53-54da-85c4-f6790e2bddd3-attr-1-name" class="er entityLabel">int</text><rect height="24" width="83.078125" y="51.015625" x="0" class="er attributeBoxEven"></rect><text style="dominant-baseline: middle; font-size: 10.2px;" transform="translate(5,63.015625)" y="0" x="0" id="text-entity-PRESCRIPTION-ee3d4443-df53-54da-85c4-f6790e2bddd3-attr-2-type" class="er entityLabel">LensHardness</text><rect height="24" width="31.788330078125" y="51.015625" x="83.078125" class="er attributeBoxEven"></rect><text style="dominant-baseline: middle; font-size: 10.2px;" transform="translate(88.078125,63.015625)" y="0" x="0" id="text-entity-PRESCRIPTION-ee3d4443-df53-54da-85c4-f6790e2bddd3-attr-2-name" class="er entityLabel">float</text><rect height="24" width="83.078125" y="75.015625" x="0" class="er attributeBoxOdd"></rect><text style="dominant-baseline: middle; font-size: 10.2px;" transform="translate(5,87.015625)" y="0" x="0" id="text-entity-PRESCRIPTION-ee3d4443-df53-54da-85c4-f6790e2bddd3-attr-3-type" class="er entityLabel">DatePrescribed</text><rect height="24" width="31.788330078125" y="75.015625" x="83.078125" class="er attributeBoxOdd"></rect><text style="dominant-baseline: middle; font-size: 10.2px;" transform="translate(88.078125,87.015625)" y="0" x="0" id="text-entity-PRESCRIPTION-ee3d4443-df53-54da-85c4-f6790e2bddd3-attr-3-name" class="er entityLabel">date</text><rect height="24" width="83.078125" y="99.015625" x="0" class="er attributeBoxEven"></rect><text style="dominant-baseline: middle; font-size: 10.2px;" transform="translate(5,111.015625)" y="0" x="0" id="text-entity-PRESCRIPTION-ee3d4443-df53-54da-85c4-f6790e2bddd3-attr-4-type" class="er entityLabel">PatientID</text><rect height="24" width="31.788330078125" y="99.015625" x="83.078125" class="er attributeBoxEven"></rect><text style="dominant-baseline: middle; font-size: 10.2px;" transform="translate(88.078125,111.015625)" y="0" x="0" id="text-entity-PRESCRIPTION-ee3d4443-df53-54da-85c4-f6790e2bddd3-attr-4-name" class="er entityLabel">int</text><rect height="24" width="83.078125" y="123.015625" x="0" class="er attributeBoxOdd"></rect><text style="dominant-baseline: middle; font-size: 10.2px;" transform="translate(5,135.015625)" y="0" x="0" id="text-entity-PRESCRIPTION-ee3d4443-df53-54da-85c4-f6790e2bddd3-attr-5-type" class="er entityLabel">DoctorID</text><rect height="24" width="31.788330078125" y="123.015625" x="83.078125" class="er attributeBoxOdd"></rect><text style="dominant-baseline: middle; font-size: 10.2px;" transform="translate(88.078125,135.015625)" y="0" x="0" id="text-entity-PRESCRIPTION-ee3d4443-df53-54da-85c4-f6790e2bddd3-attr-5-name" class="er entityLabel">int</text></g><g transform="translate(615.6659698486328,267.015625 )" id="entity-DIAGNOSIS-eb317232-cae3-539f-be43-e36a2dc34605"><rect height="171.015625" width="129.45162963867188" y="0" x="0" class="er entityBox"></rect><text style="dominant-baseline: middle; text-anchor: middle; font-size: 12px;" transform="translate(64.72581481933594,13.5078125)" y="0" x="0" id="text-entity-DIAGNOSIS-eb317232-cae3-539f-be43-e36a2dc34605" class="er entityLabel">DIAGNOSIS</text><rect height="24" width="82.75" y="27.015625" x="0" class="er attributeBoxOdd"></rect><text style="dominant-baseline: middle; font-size: 10.2px;" transform="translate(5,39.015625)" y="0" x="0" id="text-entity-DIAGNOSIS-eb317232-cae3-539f-be43-e36a2dc34605-attr-1-type" class="er entityLabel">DiagnosisID</text><rect height="24" width="46.701629638671875" y="27.015625" x="82.75" class="er attributeBoxOdd"></rect><text style="dominant-baseline: middle; font-size: 10.2px;" transform="translate(87.75,39.015625)" y="0" x="0" id="text-entity-DIAGNOSIS-eb317232-cae3-539f-be43-e36a2dc34605-attr-1-name" class="er entityLabel">int</text><rect height="24" width="82.75" y="51.015625" x="0" class="er attributeBoxEven"></rect><text style="dominant-baseline: middle; font-size: 10.2px;" transform="translate(5,63.015625)" y="0" x="0" id="text-entity-DIAGNOSIS-eb317232-cae3-539f-be43-e36a2dc34605-attr-2-type" class="er entityLabel">DateDiagnosed</text><rect height="24" width="46.701629638671875" y="51.015625" x="82.75" class="er attributeBoxEven"></rect><text style="dominant-baseline: middle; font-size: 10.2px;" transform="translate(87.75,63.015625)" y="0" x="0" id="text-entity-DIAGNOSIS-eb317232-cae3-539f-be43-e36a2dc34605-attr-2-name" class="er entityLabel">date</text><rect height="24" width="82.75" y="75.015625" x="0" class="er attributeBoxOdd"></rect><text style="dominant-baseline: middle; font-size: 10.2px;" transform="translate(5,87.015625)" y="0" x="0" id="text-entity-DIAGNOSIS-eb317232-cae3-539f-be43-e36a2dc34605-attr-3-type" class="er entityLabel">OcularAge</text><rect height="24" width="46.701629638671875" y="75.015625" x="82.75" class="er attributeBoxOdd"></rect><text style="dominant-baseline: middle; font-size: 10.2px;" transform="translate(87.75,87.015625)" y="0" x="0" id="text-entity-DIAGNOSIS-eb317232-cae3-539f-be43-e36a2dc34605-attr-3-name" class="er entityLabel">varchar</text><rect height="24" width="82.75" y="99.015625" x="0" class="er attributeBoxEven"></rect><text style="dominant-baseline: middle; font-size: 10.2px;" transform="translate(5,111.015625)" y="0" x="0" id="text-entity-DIAGNOSIS-eb317232-cae3-539f-be43-e36a2dc34605-attr-4-type" class="er entityLabel">TearRate</text><rect height="24" width="46.701629638671875" y="99.015625" x="82.75" class="er attributeBoxEven"></rect><text style="dominant-baseline: middle; font-size: 10.2px;" transform="translate(87.75,111.015625)" y="0" x="0" id="text-entity-DIAGNOSIS-eb317232-cae3-539f-be43-e36a2dc34605-attr-4-name" class="er entityLabel">float</text><rect height="24" width="82.75" y="123.015625" x="0" class="er attributeBoxOdd"></rect><text style="dominant-baseline: middle; font-size: 10.2px;" transform="translate(5,135.015625)" y="0" x="0" id="text-entity-DIAGNOSIS-eb317232-cae3-539f-be43-e36a2dc34605-attr-5-type" class="er entityLabel">PatientID</text><rect height="24" width="46.701629638671875" y="123.015625" x="82.75" class="er attributeBoxOdd"></rect><text style="dominant-baseline: middle; font-size: 10.2px;" transform="translate(87.75,135.015625)" y="0" x="0" id="text-entity-DIAGNOSIS-eb317232-cae3-539f-be43-e36a2dc34605-attr-5-name" class="er entityLabel">int</text><rect height="24" width="82.75" y="147.015625" x="0" class="er attributeBoxEven"></rect><text style="dominant-baseline: middle; font-size: 10.2px;" transform="translate(5,159.015625)" y="0" x="0" id="text-entity-DIAGNOSIS-eb317232-cae3-539f-be43-e36a2dc34605-attr-6-type" class="er entityLabel">DoctorID</text><rect height="24" width="46.701629638671875" y="147.015625" x="82.75" class="er attributeBoxEven"></rect><text style="dominant-baseline: middle; font-size: 10.2px;" transform="translate(87.75,159.015625)" y="0" x="0" id="text-entity-DIAGNOSIS-eb317232-cae3-539f-be43-e36a2dc34605-attr-6-name" class="er entityLabel">int</text></g><g transform="translate(20,538.03125 )" id="entity-APPOINTMENT-81ec4a42-441b-5eff-951e-1d923bb99ec1"><rect height="147.015625" width="143.9375" y="0" x="0" class="er entityBox"></rect><text style="dominant-baseline: middle; text-anchor: middle; font-size: 12px;" transform="translate(71.96875,13.5078125)" y="0" x="0" id="text-entity-APPOINTMENT-81ec4a42-441b-5eff-951e-1d923bb99ec1" class="er entityLabel">APPOINTMENT</text><rect height="24" width="82.765625" y="27.015625" x="0" class="er attributeBoxOdd"></rect><text style="dominant-baseline: middle; font-size: 10.2px;" transform="translate(5,39.015625)" y="0" x="0" id="text-entity-APPOINTMENT-81ec4a42-441b-5eff-951e-1d923bb99ec1-attr-1-type" class="er entityLabel">AppointmentID</text><rect height="24" width="61.171875" y="27.015625" x="82.765625" class="er attributeBoxOdd"></rect><text style="dominant-baseline: middle; font-size: 10.2px;" transform="translate(87.765625,39.015625)" y="0" x="0" id="text-entity-APPOINTMENT-81ec4a42-441b-5eff-951e-1d923bb99ec1-attr-1-name" class="er entityLabel">int</text><rect height="24" width="82.765625" y="51.015625" x="0" class="er attributeBoxEven"></rect><text style="dominant-baseline: middle; font-size: 10.2px;" transform="translate(5,63.015625)" y="0" x="0" id="text-entity-APPOINTMENT-81ec4a42-441b-5eff-951e-1d923bb99ec1-attr-2-type" class="er entityLabel">PatientID</text><rect height="24" width="61.171875" y="51.015625" x="82.765625" class="er attributeBoxEven"></rect><text style="dominant-baseline: middle; font-size: 10.2px;" transform="translate(87.765625,63.015625)" y="0" x="0" id="text-entity-APPOINTMENT-81ec4a42-441b-5eff-951e-1d923bb99ec1-attr-2-name" class="er entityLabel">int</text><rect height="24" width="82.765625" y="75.015625" x="0" class="er attributeBoxOdd"></rect><text style="dominant-baseline: middle; font-size: 10.2px;" transform="translate(5,87.015625)" y="0" x="0" id="text-entity-APPOINTMENT-81ec4a42-441b-5eff-951e-1d923bb99ec1-attr-3-type" class="er entityLabel">DoctorID</text><rect height="24" width="61.171875" y="75.015625" x="82.765625" class="er attributeBoxOdd"></rect><text style="dominant-baseline: middle; font-size: 10.2px;" transform="translate(87.765625,87.015625)" y="0" x="0" id="text-entity-APPOINTMENT-81ec4a42-441b-5eff-951e-1d923bb99ec1-attr-3-name" class="er entityLabel">int</text><rect height="24" width="82.765625" y="99.015625" x="0" class="er attributeBoxEven"></rect><text style="dominant-baseline: middle; font-size: 10.2px;" transform="translate(5,111.015625)" y="0" x="0" id="text-entity-APPOINTMENT-81ec4a42-441b-5eff-951e-1d923bb99ec1-attr-4-type" class="er entityLabel">VisitDate</text><rect height="24" width="61.171875" y="99.015625" x="82.765625" class="er attributeBoxEven"></rect><text style="dominant-baseline: middle; font-size: 10.2px;" transform="translate(87.765625,111.015625)" y="0" x="0" id="text-entity-APPOINTMENT-81ec4a42-441b-5eff-951e-1d923bb99ec1-attr-4-name" class="er entityLabel">timestamp</text><rect height="24" width="82.765625" y="123.015625" x="0" class="er attributeBoxOdd"></rect><text style="dominant-baseline: middle; font-size: 10.2px;" transform="translate(5,135.015625)" y="0" x="0" id="text-entity-APPOINTMENT-81ec4a42-441b-5eff-951e-1d923bb99ec1-attr-5-type" class="er entityLabel">PrescriptionID</text><rect height="24" width="61.171875" y="123.015625" x="82.765625" class="er attributeBoxOdd"></rect><text style="dominant-baseline: middle; font-size: 10.2px;" transform="translate(87.765625,135.015625)" y="0" x="0" id="text-entity-APPOINTMENT-81ec4a42-441b-5eff-951e-1d923bb99ec1-attr-5-name" class="er entityLabel">int</text></g><g transform="translate(529.8332290649414,574.03125 )" id="entity-DIAGNOSISDISEASE-da664dc4-f78e-51e3-a6b9-ecd47576f72c"><rect height="75.015625" width="144.65625" y="0" x="0" class="er entityBox"></rect><text style="dominant-baseline: middle; text-anchor: middle; font-size: 12px;" transform="translate(72.328125,13.5078125)" y="0" x="0" id="text-entity-DIAGNOSISDISEASE-da664dc4-f78e-51e3-a6b9-ecd47576f72c" class="er entityLabel">DIAGNOSIS_DISEASE</text><rect height="24" width="93.94960021972656" y="27.015625" x="0" class="er attributeBoxOdd"></rect><text style="dominant-baseline: middle; font-size: 10.2px;" transform="translate(5,39.015625)" y="0" x="0" id="text-entity-DIAGNOSISDISEASE-da664dc4-f78e-51e3-a6b9-ecd47576f72c-attr-1-type" class="er entityLabel">DiagnosisID</text><rect height="24" width="50.70664978027344" y="27.015625" x="93.94960021972656" class="er attributeBoxOdd"></rect><text style="dominant-baseline: middle; font-size: 10.2px;" transform="translate(98.94960021972656,39.015625)" y="0" x="0" id="text-entity-DIAGNOSISDISEASE-da664dc4-f78e-51e3-a6b9-ecd47576f72c-attr-1-name" class="er entityLabel">int</text><rect height="24" width="93.94960021972656" y="51.015625" x="0" class="er attributeBoxEven"></rect><text style="dominant-baseline: middle; font-size: 10.2px;" transform="translate(5,63.015625)" y="0" x="0" id="text-entity-DIAGNOSISDISEASE-da664dc4-f78e-51e3-a6b9-ecd47576f72c-attr-2-type" class="er entityLabel">DiseaseID</text><rect height="24" width="50.70664978027344" y="51.015625" x="93.94960021972656" class="er attributeBoxEven"></rect><text style="dominant-baseline: middle; font-size: 10.2px;" transform="translate(98.94960021972656,63.015625)" y="0" x="0" id="text-entity-DIAGNOSISDISEASE-da664dc4-f78e-51e3-a6b9-ecd47576f72c-attr-2-name" class="er entityLabel">int</text></g><rect height="17.015625" width="20.02734375" y="215.03485107421875" x="158.60223388671875" class="er relationshipLabelBox"></rect><text style="text-anchor: middle; dominant-baseline: middle; font-size: 12px;" y="223.54266357421875" x="168.61590576171875" id="rel58" class="er relationshipLabel">has</text><rect height="17.015625" width="58.46484375" y="234.1104736328125" x="325.7575988769531" class="er relationshipLabelBox"></rect><text style="text-anchor: middle; dominant-baseline: middle; font-size: 12px;" y="242.6182861328125" x="354.9900207519531" id="rel59" class="er relationshipLabel">prescribes</text><rect height="17.015625" width="20.02734375" y="183.22262573242188" x="388.32672119140625" class="er relationshipLabelBox"></rect><text style="text-anchor: middle; dominant-baseline: middle; font-size: 12px;" y="191.73043823242188" x="398.34039306640625" id="rel60" class="er relationshipLabel">has</text><rect height="17.015625" width="36.8203125" y="164.28204345703125" x="570.99365234375" class="er relationshipLabelBox"></rect><text style="text-anchor: middle; dominant-baseline: middle; font-size: 12px;" y="172.78985595703125" x="589.40380859375" id="rel61" class="er relationshipLabel">makes</text><rect height="17.015625" width="50.392578125" y="487.99822998046875" x="453.0142822265625" class="er relationshipLabelBox"></rect><text style="text-anchor: middle; dominant-baseline: middle; font-size: 12px;" y="496.50604248046875" x="478.2105712890625" id="rel62" class="er relationshipLabel">is part of</text><rect height="17.015625" width="46.60546875" y="501.399169921875" x="640.7616577148438" class="er relationshipLabelBox"></rect><text style="text-anchor: middle; dominant-baseline: middle; font-size: 12px;" y="509.906982421875" x="664.0643920898438" id="rel63" class="er relationshipLabel">includes</text><rect height="17.015625" width="20.02734375" y="327.4032287597656" x="-73.98450469970703" class="er relationshipLabelBox"></rect><text style="text-anchor: middle; dominant-baseline: middle; font-size: 12px;" y="335.9110412597656" x="-63.97083282470703" id="rel64" class="er relationshipLabel">has</text><rect height="17.015625" width="42.662109375" y="236.41549682617188" x="41.28997039794922" class="er relationshipLabelBox"></rect><text style="text-anchor: middle; dominant-baseline: middle; font-size: 12px;" y="244.92330932617188" x="62.62102508544922" id="rel65" class="er relationshipLabel">attends</text><rect height="17.015625" width="51.265625" y="488.8742980957031" x="192.11410522460938" class="er relationshipLabelBox"></rect><text style="text-anchor: middle; dominant-baseline: middle; font-size: 12px;" y="497.3821105957031" x="217.74691772460938" id="rel66" class="er relationshipLabel">results in</text></svg>